<svg width="176" height="48" viewBox="0 0 176 48" fill="none" xmlns="http://www.w3.org/2000/svg" role="img" aria-labelledby="title desc">
  <title id="title">Nexio logo</title>
  <desc id="desc">Nexio digital studio logo in blue and cyan</desc>
  <rect x="1" y="1" width="46" height="46" rx="14" fill="url(#paint0_linear)" stroke="rgba(255,255,255,.32)"/>
  <path d="M15 33V15H20.6L28.2 25.3V15H34V33H28.4L20.8 22.7V33H15Z" fill="white"/>
  <path d="M41 13L35.5 18.5" stroke="#00C2FF" stroke-width="2.7" stroke-linecap="round"/>
  <path d="M109.2 15.4C112.2 15.4 114.5 16.2 116.2 17.9C117.9 19.6 118.8 21.7 118.8 24.3C118.8 26.9 117.9 29.1 116.2 30.7C114.5 32.4 112.2 33.2 109.2 33.2C106.2 33.2 103.9 32.4 102.2 30.7C100.5 29.1 99.6 26.9 99.6 24.3C99.6 21.7 100.5 19.6 102.2 17.9C103.9 16.2 106.2 15.4 109.2 15.4ZM109.2 19.3C107.7 19.3 106.6 19.8 105.8 20.7C105 21.6 104.6 22.8 104.6 24.3C104.6 25.8 105 27 105.8 27.9C106.6 28.9 107.7 29.3 109.2 29.3C110.7 29.3 111.8 28.9 112.6 27.9C113.4 27 113.8 25.8 113.8 24.3C113.8 22.8 113.4 21.6 112.6 20.7C111.8 19.8 110.7 19.3 109.2 19.3Z" fill="white"/>
  <path d="M59.6 33V15.8H64.1L72 25.1V15.8H76.7V33H72.2L64.3 23.6V33H59.6ZM81.1 33V15.8H94.7V19.6H85.8V22.4H93.9V26H85.8V29.2H95.1V33H81.1ZM121.9 33V15.8H126.7V33H121.9ZM130.7 33L137 24.2L131.1 15.8H136.6L139.9 20.7L143.3 15.8H148.6L142.8 24L149.3 33H143.8L139.8 27.4L136 33H130.7Z" fill="#DFF7FF"/>
  <defs>
    <linearGradient id="paint0_linear" x1="3" y1="7" x2="47" y2="44" gradientUnits="userSpaceOnUse">
      <stop stop-color="#147CFF"/>
      <stop offset="0.55" stop-color="#00C2FF"/>
      <stop offset="1" stop-color="#071A33"/>
    </linearGradient>
  </defs>
</svg>
