<svg xmlns="http://www.w3.org/2000/svg" viewBox="0 0 32 32" role="img" aria-label="United States flag"><defs><clipPath id="c"><circle cx="16" cy="16" r="16"/></clipPath></defs><g clip-path="url(#c)"><rect y="0.000" width="32" height="2.462" fill="#B22234"/><rect y="2.462" width="32" height="2.462" fill="#FFFFFF"/><rect y="4.923" width="32" height="2.462" fill="#B22234"/><rect y="7.385" width="32" height="2.462" fill="#FFFFFF"/><rect y="9.846" width="32" height="2.462" fill="#B22234"/><rect y="12.308" width="32" height="2.462" fill="#FFFFFF"/><rect y="14.769" width="32" height="2.462" fill="#B22234"/><rect y="17.231" width="32" height="2.462" fill="#FFFFFF"/><rect y="19.692" width="32" height="2.462" fill="#B22234"/><rect y="22.154" width="32" height="2.462" fill="#FFFFFF"/><rect y="24.615" width="32" height="2.462" fill="#B22234"/><rect y="27.077" width="32" height="2.462" fill="#FFFFFF"/><rect y="29.538" width="32" height="2.462" fill="#B22234"/><rect width="13" height="9" fill="#3C3B6E"/><circle cx="1.70" cy="1.70" r="0.28" fill="#fff"/><circle cx="3.40" cy="1.70" r="0.28" fill="#fff"/><circle cx="5.10" cy="1.70" r="0.28" fill="#fff"/><circle cx="6.80" cy="1.70" r="0.28" fill="#fff"/><circle cx="8.50" cy="1.70" r="0.28" fill="#fff"/><circle cx="10.20" cy="1.70" r="0.28" fill="#fff"/><circle cx="1.70" cy="3.25" r="0.28" fill="#fff"/><circle cx="3.40" cy="3.25" r="0.28" fill="#fff"/><circle cx="5.10" cy="3.25" r="0.28" fill="#fff"/><circle cx="6.80" cy="3.25" r="0.28" fill="#fff"/><circle cx="8.50" cy="3.25" r="0.28" fill="#fff"/><circle cx="10.20" cy="3.25" r="0.28" fill="#fff"/><circle cx="1.70" cy="4.80" r="0.28" fill="#fff"/><circle cx="3.40" cy="4.80" r="0.28" fill="#fff"/><circle cx="5.10" cy="4.80" r="0.28" fill="#fff"/><circle cx="6.80" cy="4.80" r="0.28" fill="#fff"/><circle cx="8.50" cy="4.80" r="0.28" fill="#fff"/><circle cx="10.20" cy="4.80" r="0.28" fill="#fff"/><circle cx="1.70" cy="6.35" r="0.28" fill="#fff"/><circle cx="3.40" cy="6.35" r="0.28" fill="#fff"/><circle cx="5.10" cy="6.35" r="0.28" fill="#fff"/><circle cx="6.80" cy="6.35" r="0.28" fill="#fff"/><circle cx="8.50" cy="6.35" r="0.28" fill="#fff"/><circle cx="10.20" cy="6.35" r="0.28" fill="#fff"/><circle cx="1.70" cy="7.90" r="0.28" fill="#fff"/><circle cx="3.40" cy="7.90" r="0.28" fill="#fff"/><circle cx="5.10" cy="7.90" r="0.28" fill="#fff"/><circle cx="6.80" cy="7.90" r="0.28" fill="#fff"/><circle cx="8.50" cy="7.90" r="0.28" fill="#fff"/><circle cx="10.20" cy="7.90" r="0.28" fill="#fff"/></g><circle cx="16" cy="16" r="15.5" fill="none" stroke="rgba(255,255,255,.45)"/></svg>